# xmcd
#
# Track frame offsets:
# 150
# 20835
# 47235
# 60514
# 74920
# 93770
# 105520
# 116725
# 133205
#
# Disc length: 2039 seconds
#
#
# Revision: 0
# Processed by: cddbd v1.5.2PL0 Copyright (c) Steve Scherf et al.
# Submitted via: Nero 7, 11, 10, 0 
#
DISCID=8407f509
DTITLE=Bobby Little - Bobby Little Featuring The Counts Of Rhythm
DYEAR=1995
DGENRE=Blues
TTITLE0=Tears I Cried
TTITLE1=Midnight Hour
TTITLE2=Delta Nova
TTITLE3=Scream and Cry
TTITLE4=You Been Cheatin'
TTITLE5=I-55
TTITLE6=Yeah Yeah
TTITLE7=Last Laugh
TTITLE8=The Counts Of Rhythm
EXTD=
EXTT0=Tears I Cried
EXTT1=Midnight Hour
EXTT2=Delta Nova
EXTT3=Scream and Cry
EXTT4=You Been Cheatin'
EXTT5=I-55
EXTT6=Yeah Yeah
EXTT7=Last Laugh
EXTT8=The Counts Of Rhythm
PLAYORDER=
